<?xml version="1.0" encoding="UTF-8"?>
<!DOCTYPE svg PUBLIC "-//W3C//DTD SVG 1.1//EN" "http://www.w3.org/Graphics/SVG/1.1/DTD/svg11.dtd">
<!-- Creator: CorelDRAW 2020 (64-Bit) -->
<svg xmlns="http://www.w3.org/2000/svg" xml:space="preserve" width="2160px" height="1080px" version="1.1" style="shape-rendering:geometricPrecision; text-rendering:geometricPrecision; image-rendering:optimizeQuality; fill-rule:evenodd; clip-rule:evenodd"
viewBox="0 0 2160 1080"
 xmlns:xlink="http://www.w3.org/1999/xlink"
 xmlns:xodm="http://www.corel.com/coreldraw/odm/2003">
 <defs>
  <style type="text/css">
   <![CDATA[
    .fil0 {fill:#FAFFFF}
    .fil1 {fill:#00B0FF;fill-rule:nonzero}
    .fil4 {fill:#2F2E41;fill-rule:nonzero}
    .fil3 {fill:#3F3D56;fill-rule:nonzero}
    .fil6 {fill:#D0CDE1;fill-rule:nonzero}
    .fil2 {fill:#F2F2F2;fill-rule:nonzero}
    .fil5 {fill:#FFB8B8;fill-rule:nonzero}
   ]]>
  </style>
 </defs>
 <g id="Layer_x0020_1">
  <metadata id="CorelCorpID_0Corel-Layer"/>
  <rect id="Background" class="fil0" x="-0.001" width="2160" height="1080"/>
  <g id="Ilustration">
   <path class="fil1" d="M1943.87 574.313c0,126.51 -74.17,238.43 -187.871,306.561 -72.9,43.689 -162.06,69.38 -258.33,69.38 -128.25,0 -226.08,-48.471 -299.67,-122.72 -67.83,-68.421 -115.06,-158.751 -146.53,-253.221 -140.49,-421.79 94.2,-536.86 446.2,-375.94 224.12,102.47 446.201,168.32 446.201,375.94z"/>
   <path class="fil2" d="M1755.999 353.503l0 528.371c-72.9,43.69 -162.06,69.38 -258.33,69.38 -128.25,0 -226.08,-48.47 -299.67,-122.72l0 -475.031 558 0z"/>
   <path class="fil3" d="M1251.67 610.955c29.19,-9.265 59.536,-14.72 90.138,-16.084 3.983,-0.141 8.014,-0.245 12.009,-0.245 11.333,0 22.735,0.724 33.965,2.067 15.077,1.964 30.103,5.228 44.638,9.546 14.42,4.176 28.642,8.999 43.014,13.334 14.564,4.41 29.502,8.084 44.44,10.826 14.846,2.679 30.076,4.519 45.167,5.393 15.004,0.872 30.153,1.042 45.114,-0.556 13.98,-1.331 27.679,-4.819 40.604,-10.279 12.043,-5.262 23.197,-12.436 33.005,-21.184 2.45,-2.181 4.806,-4.461 7.069,-6.839 1.334,-1.395 -0.784,-3.52 -2.122,-2.121 -19.125,19.992 -44.262,32.388 -71.527,36.527 -14.853,2.256 -29.99,2.386 -44.973,1.805 -15.276,-0.584 -30.636,-2.166 -45.726,-4.605 -14.864,-2.47 -29.742,-5.875 -44.247,-10.072 -14.288,-4.14 -28.381,-8.912 -42.62,-13.215 -14.346,-4.532 -29.108,-8.056 -43.909,-10.484 -13.711,-2.093 -27.658,-3.137 -41.537,-3.137 -1.146,0 -2.358,0.034 -3.47,0.034 -30.045,0.448 -60.048,4.944 -88.959,13.181 -3.644,1.01 -7.267,2.081 -10.87,3.215 -1.837,0.576 -1.053,3.473 0.797,2.893z"/>
   <path class="fil3" d="M1251.67 686.955c29.19,-9.265 59.536,-14.72 90.138,-16.084 3.983,-0.141 8.014,-0.244 12.009,-0.244 11.333,0 22.735,0.723 33.965,2.066 15.077,1.963 30.103,5.228 44.638,9.546 14.42,4.176 28.642,8.999 43.014,13.334 14.564,4.41 29.502,8.083 44.44,10.826 14.846,2.679 30.076,4.519 45.167,5.394 15.004,0.872 30.153,1.042 45.114,-0.557 13.98,-1.331 27.679,-4.819 40.604,-10.279 12.043,-5.262 23.197,-12.436 33.005,-21.184 2.45,-2.181 4.806,-4.461 7.069,-6.839 1.334,-1.395 -0.784,-3.52 -2.122,-2.121 -19.125,19.992 -44.262,32.388 -71.527,36.527 -14.853,2.256 -29.99,2.386 -44.973,1.805 -15.276,-0.584 -30.636,-2.165 -45.726,-4.605 -14.864,-2.47 -29.742,-5.874 -44.247,-10.072 -14.288,-4.139 -28.381,-8.912 -42.62,-13.215 -14.346,-4.533 -29.108,-8.057 -43.909,-10.485 -13.711,-2.092 -27.658,-3.136 -41.537,-3.136 -1.146,0 -2.358,0.033 -3.47,0.033 -30.045,0.449 -60.048,4.945 -88.959,13.182 -3.644,1.009 -7.267,2.081 -10.87,3.216 -1.837,0.575 -1.053,3.472 0.797,2.892z"/>
   <path class="fil3" d="M1251.67 541.955c29.19,-9.264 59.536,-14.72 90.138,-16.084 3.983,-0.141 8.014,-0.244 12.009,-0.244 11.333,0 22.735,0.723 33.965,2.067 15.077,1.963 30.103,5.228 44.638,9.546 14.42,4.175 28.642,8.998 43.014,13.333 14.564,4.41 29.502,8.083 44.44,10.826 14.846,2.679 30.076,4.519 45.167,5.394 15.004,0.871 30.153,1.042 45.114,-0.557 13.98,-1.331 27.679,-4.819 40.604,-10.279 12.043,-5.262 23.197,-12.436 33.005,-21.184 2.45,-2.181 4.806,-4.461 7.069,-6.839 1.334,-1.395 -0.784,-3.52 -2.122,-2.121 -19.125,19.991 -44.262,32.388 -71.527,36.527 -14.853,2.255 -29.99,2.386 -44.973,1.805 -15.276,-0.584 -30.636,-2.165 -45.726,-4.605 -14.864,-2.47 -29.741,-5.875 -44.247,-10.072 -14.288,-4.139 -28.381,-8.912 -42.619,-13.215 -14.347,-4.532 -29.109,-8.056 -43.91,-10.484 -13.711,-2.093 -27.658,-3.137 -41.537,-3.137 -1.146,0 -2.358,0.034 -3.47,0.034 -30.045,0.448 -60.048,4.945 -88.959,13.181 -3.644,1.01 -7.267,2.082 -10.87,3.215 -1.837,0.576 -1.053,3.473 0.797,2.893z"/>
   <path class="fil3" d="M1248.096 411.496c7.258,-3.215 15.573,-2.655 23.106,-0.79 8.122,2.01 15.771,5.507 23.767,7.924 7.623,2.271 15.537,3.426 23.492,3.426 6.901,0 13.811,-0.874 20.49,-2.591 8.126,-2.068 15.914,-5.413 23.03,-9.876 1.631,-1.025 0.127,-3.622 -1.514,-2.59 -12.632,7.886 -27.217,12.068 -42.103,12.068 -0.068,0 -0.156,0 -0.224,0 -7.491,-0.009 -14.971,-1.119 -22.146,-3.261 -7.938,-2.38 -15.525,-5.835 -23.566,-7.884 -8.519,-2.172 -17.655,-2.643 -25.843,0.985 -1.762,0.781 -0.237,3.366 1.514,2.591l-0.003 -0.002z"/>
   <circle class="fil3" cx="1470.999" cy="825.504" r="46"/>
   <circle class="fil2" cx="1222.999" cy="234.504" r="25"/>
   <circle class="fil2" cx="1441.999" cy="305.503" r="17"/>
   <circle class="fil2" cx="1165.999" cy="468.504" r="17"/>
   <rect class="fil3" x="1095.68" y="342.211" width="1.875" height="335.245"/>
   <ellipse class="fil3" cx="1096.978" cy="565.301" rx="36.557" ry="83.424"/>
   <ellipse class="fil3" cx="1096.978" cy="375.018" rx="36.557" ry="83.424"/>
   <path class="fil3" d="M1097.876 306.861l-1.796 -0.538c0.114,-0.38 11.135,-38.148 -6.962,-62.461 -10.22,-13.732 -27.76,-20.695 -52.13,-20.695l0 -1.874c24.999,0 43.046,7.219 53.639,21.457 18.658,25.075 7.366,63.724 7.249,64.111z"/>
   <circle class="fil3" cx="1036.988" cy="222.23" r="23.434"/>
   <path class="fil4" d="M1780.872 753.424l-17.532 161.299 120.974 0 5.26 -12.272 7.013 12.272 113.962 0c0,0 -8.767,-166.558 -24.546,-171.818 -15.779,-5.26 -205.131,10.519 -205.131,10.519z"/>
   <circle class="fil5" cx="1884.314" cy="337.903" r="61.364"/>
   <path class="fil5" d="M1849.249 376.475c0,0 5.26,56.104 0,59.611 -5.259,3.506 84.157,1.753 84.157,1.753 0,0 -12.273,-50.844 0,-75.39l-84.157 14.026z"/>
   <path class="fil6" d="M1880.808 423.813c0,0 45.113,7.026 48.855,-7.006l23.028 31.552 1.754 315.585c0,0 -187.598,22.793 -194.611,-14.026 -7.013,-36.818 71.883,-327.858 71.883,-327.858l19.862 -1.286c0,0 25.722,3.039 29.229,3.039z"/>
   <path class="fil3" d="M1851.281 406.375l-30.084 10.425 -85.909 21.039 3.507 210.39c0,0 -73.637,210.39 -40.325,226.17 33.311,15.779 80.649,-21.04 94.675,-47.338 14.027,-26.299 63.117,-390.976 63.117,-397.988 0,-7.013 -4.981,-22.698 -4.981,-22.698z"/>
   <path class="fil3" d="M1928.536 406.375l11.882 10.425 84.157 38.571 -42.078 212.144c0,0 56.104,192.857 35.065,203.377 -21.039,10.519 -52.598,40.325 -59.611,22.792 -7.013,-17.532 -48.31,-467.928 -29.415,-487.309z"/>
   <path class="fil5" d="M1977.237 686.8c0,0 -78.896,-33.311 -80.65,-3.506 -1.753,29.805 89.416,50.844 89.416,42.078 0,-8.767 -8.766,-38.572 -8.766,-38.572z"/>
   <path class="fil5" d="M1784.379 674.528c0,0 91.169,68.377 56.104,85.909 -35.065,17.533 -80.649,-61.363 -80.649,-61.363l24.545 -24.546z"/>
   <path class="fil4" d="M1911.558 248.015c0.558,-1.183 1.75,-1.938 3.059,-1.938 0.065,0 0.132,0.002 0.197,0.005 -28.094,-1.68 -57.685,1.594 -81.188,17.076 -6.582,4.336 -12.729,9.637 -20.223,12.081l6.083 4.77 -7.268 2.215 10.696 6.913c-1.759,2 -4.297,3.148 -6.961,3.148 -0.627,0 -1.254,-0.065 -1.868,-0.19 4.648,1.358 8.071,5.494 9.809,10.014 1.738,4.52 2.05,9.442 2.344,14.276 1.797,-6.975 9.408,-11.08 16.598,-11.497 7.19,-0.417 14.202,1.955 21.199,3.66 9.051,2.186 18.372,3.317 27.692,3.317 6.314,0 12.628,-0.53 18.856,-1.532 -5.257,10.549 -0.823,23.131 3.64,34.04l8.909 21.787c4.946,0.497 8.442,-4.421 12.169,-7.712 3.396,-2.999 -10.125,23.377 -8.032,22.41 2.72,-1.255 31.422,-32.944 32.766,-35.621 6.132,-12.214 9.811,-25.837 9.258,-39.493 -0.554,-13.656 -5.55,-27.319 -14.963,-37.228 -6.391,-6.727 -15.232,-7.905 -21.746,-13.496 -2.564,-2.201 -2.574,-3.92 -6.097,-5.203 -1.171,-0.426 -14.736,-2.231 -14.929,-1.802z"/>
   <path class="fil3" d="M1747.561 443.099l-12.273 -5.26 -98.182 161.299c0,0 -17.533,42.078 14.026,61.364 31.558,19.286 105.195,77.143 105.195,77.143l42.078 -64.87c0,0 -85.91,-40.325 -80.65,-56.104 5.26,-15.78 33.312,-57.858 33.312,-57.858l-3.506 -115.714z"/>
   <path class="fil3" d="M2001.782 451.865l22.793 3.507c0,0 94.676,185.844 71.883,220.909 -22.792,35.065 -115.715,84.156 -115.715,84.156 0,0 -1.753,-57.857 -17.532,-78.896l54.351 -21.039 -29.806 -115.715 14.026 -92.922z"/>
  </g>
 </g>
</svg>
